<mxfile host="app.diagrams.net" modified="2023-12-14T11:46:32.975Z" agent="Mozilla/5.0 (Windows NT 10.0; Win64; x64) AppleWebKit/537.36 (KHTML, like Gecko) Chrome/120.0.0.0 Safari/537.36 Edg/120.0.0.0" etag="eDnPh_US7pBy5lNqI_Ep" version="22.1.8" type="google">
  <diagram name="Страница — 1" id="6SdKcQUR9IGQbJJMrsF1">
    <mxGraphModel grid="1" page="1" gridSize="10" guides="1" tooltips="1" connect="1" arrows="1" fold="1" pageScale="1" pageWidth="827" pageHeight="1169" math="0" shadow="0">
      <root>
        <mxCell id="0" />
        <mxCell id="1" parent="0" />
        <mxCell id="mvnC3JOQwGnSs8r97A6l-12" style="edgeStyle=none;rounded=0;orthogonalLoop=1;jettySize=auto;html=1;" edge="1" parent="1" source="mvnC3JOQwGnSs8r97A6l-1" target="mvnC3JOQwGnSs8r97A6l-2">
          <mxGeometry relative="1" as="geometry" />
        </mxCell>
        <mxCell id="mvnC3JOQwGnSs8r97A6l-14" style="edgeStyle=none;rounded=0;orthogonalLoop=1;jettySize=auto;html=1;entryX=0;entryY=0.5;entryDx=0;entryDy=0;" edge="1" parent="1" source="mvnC3JOQwGnSs8r97A6l-1" target="mvnC3JOQwGnSs8r97A6l-4">
          <mxGeometry relative="1" as="geometry" />
        </mxCell>
        <mxCell id="mvnC3JOQwGnSs8r97A6l-1" value="Клиент" style="shape=umlActor;verticalLabelPosition=bottom;verticalAlign=top;html=1;outlineConnect=0;" vertex="1" parent="1">
          <mxGeometry x="70" y="70" width="30" height="60" as="geometry" />
        </mxCell>
        <mxCell id="mvnC3JOQwGnSs8r97A6l-2" value="Сделать заказ" style="ellipse;whiteSpace=wrap;html=1;" vertex="1" parent="1">
          <mxGeometry x="330" y="30" width="120" height="80" as="geometry" />
        </mxCell>
        <mxCell id="mvnC3JOQwGnSs8r97A6l-3" value="Оформить заказ" style="ellipse;whiteSpace=wrap;html=1;" vertex="1" parent="1">
          <mxGeometry x="330" y="110" width="120" height="80" as="geometry" />
        </mxCell>
        <mxCell id="mvnC3JOQwGnSs8r97A6l-4" value="Отменить заказ" style="ellipse;whiteSpace=wrap;html=1;" vertex="1" parent="1">
          <mxGeometry x="330" y="190" width="120" height="80" as="geometry" />
        </mxCell>
        <mxCell id="mvnC3JOQwGnSs8r97A6l-10" style="edgeStyle=none;rounded=0;orthogonalLoop=1;jettySize=auto;html=1;" edge="1" parent="1" source="mvnC3JOQwGnSs8r97A6l-5" target="mvnC3JOQwGnSs8r97A6l-1">
          <mxGeometry relative="1" as="geometry">
            <Array as="points">
              <mxPoint x="30" y="180" />
            </Array>
          </mxGeometry>
        </mxCell>
        <mxCell id="mvnC3JOQwGnSs8r97A6l-5" value="Предоставлять информацию о ценах" style="ellipse;whiteSpace=wrap;html=1;" vertex="1" parent="1">
          <mxGeometry x="30" y="250" width="120" height="80" as="geometry" />
        </mxCell>
        <mxCell id="mvnC3JOQwGnSs8r97A6l-11" style="edgeStyle=none;rounded=0;orthogonalLoop=1;jettySize=auto;html=1;" edge="1" parent="1" source="mvnC3JOQwGnSs8r97A6l-6" target="mvnC3JOQwGnSs8r97A6l-1">
          <mxGeometry relative="1" as="geometry" />
        </mxCell>
        <mxCell id="mvnC3JOQwGnSs8r97A6l-6" value="Отвечать на телефонные звонки" style="ellipse;whiteSpace=wrap;html=1;" vertex="1" parent="1">
          <mxGeometry x="150" y="250" width="120" height="80" as="geometry" />
        </mxCell>
        <mxCell id="mvnC3JOQwGnSs8r97A6l-18" style="edgeStyle=none;rounded=0;orthogonalLoop=1;jettySize=auto;html=1;entryX=0;entryY=0.5;entryDx=0;entryDy=0;" edge="1" parent="1" source="mvnC3JOQwGnSs8r97A6l-7" target="mvnC3JOQwGnSs8r97A6l-16">
          <mxGeometry relative="1" as="geometry" />
        </mxCell>
        <mxCell id="mvnC3JOQwGnSs8r97A6l-7" value="Сотрудник" style="shape=umlActor;verticalLabelPosition=bottom;verticalAlign=top;html=1;outlineConnect=0;" vertex="1" parent="1">
          <mxGeometry x="130" y="420" width="30" height="60" as="geometry" />
        </mxCell>
        <mxCell id="mvnC3JOQwGnSs8r97A6l-8" style="edgeStyle=none;rounded=0;orthogonalLoop=1;jettySize=auto;html=1;entryX=0.614;entryY=1.037;entryDx=0;entryDy=0;entryPerimeter=0;" edge="1" parent="1" target="mvnC3JOQwGnSs8r97A6l-5">
          <mxGeometry relative="1" as="geometry">
            <mxPoint x="140" y="440" as="sourcePoint" />
          </mxGeometry>
        </mxCell>
        <mxCell id="mvnC3JOQwGnSs8r97A6l-9" style="edgeStyle=none;rounded=0;orthogonalLoop=1;jettySize=auto;html=1;entryX=0.359;entryY=1.037;entryDx=0;entryDy=0;entryPerimeter=0;" edge="1" parent="1" source="mvnC3JOQwGnSs8r97A6l-7" target="mvnC3JOQwGnSs8r97A6l-6">
          <mxGeometry relative="1" as="geometry" />
        </mxCell>
        <mxCell id="mvnC3JOQwGnSs8r97A6l-13" style="edgeStyle=none;rounded=0;orthogonalLoop=1;jettySize=auto;html=1;entryX=-0.001;entryY=0.577;entryDx=0;entryDy=0;entryPerimeter=0;" edge="1" parent="1" source="mvnC3JOQwGnSs8r97A6l-1" target="mvnC3JOQwGnSs8r97A6l-3">
          <mxGeometry relative="1" as="geometry" />
        </mxCell>
        <mxCell id="mvnC3JOQwGnSs8r97A6l-15" value="Сохранить заказ в БД" style="ellipse;whiteSpace=wrap;html=1;" vertex="1" parent="1">
          <mxGeometry x="280" y="400" width="120" height="80" as="geometry" />
        </mxCell>
        <mxCell id="mvnC3JOQwGnSs8r97A6l-16" value="Проверить наличие клиента" style="ellipse;whiteSpace=wrap;html=1;" vertex="1" parent="1">
          <mxGeometry x="280" y="490" width="120" height="80" as="geometry" />
        </mxCell>
        <mxCell id="mvnC3JOQwGnSs8r97A6l-17" style="edgeStyle=none;rounded=0;orthogonalLoop=1;jettySize=auto;html=1;entryX=0.014;entryY=0.592;entryDx=0;entryDy=0;entryPerimeter=0;" edge="1" parent="1" source="mvnC3JOQwGnSs8r97A6l-7" target="mvnC3JOQwGnSs8r97A6l-15">
          <mxGeometry relative="1" as="geometry" />
        </mxCell>
        <mxCell id="mvnC3JOQwGnSs8r97A6l-19" value="" style="shape=note;whiteSpace=wrap;html=1;backgroundOutline=1;darkOpacity=0.05;" vertex="1" parent="1">
          <mxGeometry x="510" y="420" width="80" height="100" as="geometry" />
        </mxCell>
        <mxCell id="mvnC3JOQwGnSs8r97A6l-20" value="Информационная система" style="text;html=1;strokeColor=none;fillColor=none;align=center;verticalAlign=middle;whiteSpace=wrap;rounded=0;" vertex="1" parent="1">
          <mxGeometry x="520" y="530" width="60" height="30" as="geometry" />
        </mxCell>
        <mxCell id="mvnC3JOQwGnSs8r97A6l-21" style="edgeStyle=none;rounded=0;orthogonalLoop=1;jettySize=auto;html=1;exitX=1;exitY=0.5;exitDx=0;exitDy=0;" edge="1" parent="1" source="mvnC3JOQwGnSs8r97A6l-15" target="mvnC3JOQwGnSs8r97A6l-15">
          <mxGeometry relative="1" as="geometry" />
        </mxCell>
        <mxCell id="mvnC3JOQwGnSs8r97A6l-22" style="edgeStyle=none;rounded=0;orthogonalLoop=1;jettySize=auto;html=1;entryX=-0.041;entryY=0.448;entryDx=0;entryDy=0;entryPerimeter=0;" edge="1" parent="1" source="mvnC3JOQwGnSs8r97A6l-15" target="mvnC3JOQwGnSs8r97A6l-19">
          <mxGeometry relative="1" as="geometry" />
        </mxCell>
        <mxCell id="mvnC3JOQwGnSs8r97A6l-23" style="edgeStyle=none;rounded=0;orthogonalLoop=1;jettySize=auto;html=1;entryX=-0.003;entryY=0.789;entryDx=0;entryDy=0;entryPerimeter=0;" edge="1" parent="1" source="mvnC3JOQwGnSs8r97A6l-16" target="mvnC3JOQwGnSs8r97A6l-19">
          <mxGeometry relative="1" as="geometry" />
        </mxCell>
      </root>
    </mxGraphModel>
  </diagram>
</mxfile>
